<?xml version="1.0" encoding="utf-8"?>
<!-- Generator: Adobe Illustrator 25.2.0, SVG Export Plug-In . SVG Version: 6.00 Build 0)  -->
<svg version="1.1" id="Layer_1" xmlns="http://www.w3.org/2000/svg" xmlns:xlink="http://www.w3.org/1999/xlink" x="0px" y="0px"
	 viewBox="0 0 64 64" style="enable-background:new 0 0 64 64;" xml:space="preserve">
<style type="text/css">
	.st0{fill:none;stroke:#ECECEC;stroke-width:3;stroke-linecap:round;stroke-linejoin:round;stroke-miterlimit:10;}
</style>
<g>
	<line class="st0" x1="13.2" y1="42.6" x2="49.3" y2="42.6"/>
	<g>
		<path class="st0" d="M46.9,42.6h7.8c4.6,0,8.4-3.3,8.4-7.5c0-3.7-3.1-6.8-7.1-7.4l0,0c0-6.5-5.7-12.6-12.1-12.6c-0.2,0,0.2,0,0,0
			c-3.4,0.2-6.4,1.8-8.3,4.4"/>
		<path class="st0" d="M43.9,15.2C43.2,7.2,36.1,1,27.5,1C18.4,1,11,8,11,16.6c0,0.8,0.1,1.7,0.2,2.5l0,0C5.5,19.8,1,24.8,1,30.8
			c0,6.5,5.2,11.8,11.5,11.8h1.8"/>
	</g>
</g>
</svg>
