<?xml version="1.0" encoding="utf-8"?>
<!-- Generator: Adobe Illustrator 25.2.0, SVG Export Plug-In . SVG Version: 6.00 Build 0)  -->
<svg version="1.1" id="Layer_1" xmlns="http://www.w3.org/2000/svg" xmlns:xlink="http://www.w3.org/1999/xlink" x="0px" y="0px"
	 viewBox="0 0 65.1 47.8" style="enable-background:new 0 0 65.1 47.8;" xml:space="preserve">
<style type="text/css">
	.st0{fill:none;stroke:#ECECEC;stroke-width:3;stroke-linecap:round;stroke-linejoin:round;stroke-miterlimit:10;}
</style>
<path class="st0" d="M36.4,6.8c2.7-3.3,6.8-5.3,11.3-5.3c8.1,0,14.7,6.6,14.7,14.7c0,4.8-2.3,9-5.9,11.7"/>
<g>
	<line class="st0" x1="14.8" y1="46.3" x2="48.1" y2="46.3"/>
	<g>
		<path class="st0" d="M47.4,46.3h7.8c4.6,0,8.4-3.3,8.4-7.5c0-3.7-3.1-6.8-7.1-7.4l0,0c0-6.5-5.7-12.6-12.1-12.6c-0.2,0,0.2,0,0,0
			c-3.4,0.2-6.4,1.8-8.3,4.4"/>
		<path class="st0" d="M44.4,18.9c-0.8-8-7.8-14.2-16.4-14.2c-9.1,0-16.5,7-16.5,15.6c0,0.8,0.1,1.7,0.2,2.5l0,0
			C6,23.4,1.5,28.4,1.5,34.5C1.5,41,6.7,46.3,13,46.3h1.8"/>
	</g>
</g>
</svg>
