<svg width="62" height="57" viewBox="0 0 62 57" fill="none" xmlns="http://www.w3.org/2000/svg">
<path d="M24.7927 40.701H35.1192" stroke="#ECECEC" stroke-width="3" stroke-miterlimit="10" stroke-linecap="round" stroke-linejoin="round"/>
<path d="M44.7014 40.701H51.9578C56.2373 40.701 59.7725 37.631 59.7725 33.7236C59.7725 30.2815 56.8885 27.3975 53.1672 26.8393C53.1672 20.7923 47.8645 15.1174 41.9104 15.1174C41.7244 15.1174 42.0965 15.1174 41.9104 15.1174C38.7474 15.3034 35.9564 16.7919 34.1888 19.2108" stroke="#ECECEC" stroke-width="3" stroke-miterlimit="10" stroke-linecap="round" stroke-linejoin="round"/>
<path d="M41.9105 15.2105C41.2592 7.76794 34.654 2 26.6533 2C18.1875 2 11.3031 8.51219 11.3031 16.5129C11.3031 17.2571 11.3962 18.0944 11.4892 18.8387C6.18641 19.4899 2 24.1415 2 29.7233C2 35.7704 6.83763 40.701 12.6986 40.701H14.3732" stroke="#ECECEC" stroke-width="3" stroke-miterlimit="10" stroke-linecap="round" stroke-linejoin="round"/>
<path d="M21.6296 53.1672L20.6993 55.4" stroke="#ECECEC" stroke-width="3" stroke-miterlimit="10" stroke-linecap="round" stroke-linejoin="round"/>
<path d="M16.885 48.2366L14.7453 53.3533" stroke="#ECECEC" stroke-width="3" stroke-miterlimit="10" stroke-linecap="round" stroke-linejoin="round"/>
<path d="M26.6533 40.9802L24.2345 46.9342" stroke="#ECECEC" stroke-width="3" stroke-miterlimit="10" stroke-linecap="round" stroke-linejoin="round"/>
<path d="M19.862 40.9802L18.9317 43.3059" stroke="#ECECEC" stroke-width="3" stroke-miterlimit="10" stroke-linecap="round" stroke-linejoin="round"/>
<path d="M31.1188 46.7481L28.9791 51.8648" stroke="#ECECEC" stroke-width="3" stroke-miterlimit="10" stroke-linecap="round" stroke-linejoin="round"/>
<path d="M35.8634 51.6788L34.3749 55.4" stroke="#ECECEC" stroke-width="3" stroke-miterlimit="10" stroke-linecap="round" stroke-linejoin="round"/>
<path d="M40.2359 40.9802L38.3753 45.6317" stroke="#ECECEC" stroke-width="3" stroke-miterlimit="10" stroke-linecap="round" stroke-linejoin="round"/>
</svg>
