<?xml version="1.0" encoding="utf-8"?>
<!-- Generator: Adobe Illustrator 25.2.0, SVG Export Plug-In . SVG Version: 6.00 Build 0)  -->
<svg version="1.1" id="Слой_1" xmlns="http://www.w3.org/2000/svg" xmlns:xlink="http://www.w3.org/1999/xlink" x="0px" y="0px"
	 viewBox="0 0 62 57" style="enable-background:new 0 0 62 57;" xml:space="preserve">
<style type="text/css">
	.st0{opacity:0.8;fill:none;stroke:#ECECEC;stroke-width:3;stroke-linecap:round;stroke-linejoin:round;stroke-miterlimit:10;}
</style>
<path class="st0" d="M12.7,40.7h35.4"/>
<path class="st0" d="M44.7,40.7H52c4.3,0,7.8-3.1,7.8-7c0-3.4-2.9-6.3-6.6-6.9c0-6-5.3-11.7-11.3-11.7c-0.2,0,0.2,0,0,0
	c-3.2,0.2-6,1.7-7.7,4.1"/>
<path class="st0" d="M41.9,15.2C41.3,7.8,34.7,2,26.7,2c-8.5,0-15.4,6.5-15.4,14.5c0,0.7,0.1,1.6,0.2,2.3C6.2,19.5,2,24.1,2,29.7
	c0,6,4.8,11,10.7,11h1.7"/>
<path class="st0" d="M9.2,29.9h14.1"/>
<path class="st0" d="M37.6,35.2h14.3"/>
<path class="st0" d="M18.5,35.2h9.7"/>
<path class="st0" d="M29.4,29.9h13.8"/>
<path class="st0" d="M20.1,24.7h11.3"/>
</svg>
