<?xml version="1.0" encoding="utf-8"?>
<!-- Generator: Adobe Illustrator 25.2.0, SVG Export Plug-In . SVG Version: 6.00 Build 0)  -->
<svg version="1.1" id="Слой_1" xmlns="http://www.w3.org/2000/svg" xmlns:xlink="http://www.w3.org/1999/xlink" x="0px" y="0px"
	 viewBox="0 0 62 57" style="enable-background:new 0 0 62 57;" xml:space="preserve">
<style type="text/css">
	.st0{opacity:0.8;fill:none;stroke:#ECECEC;stroke-width:3;stroke-linecap:round;stroke-linejoin:round;stroke-miterlimit:10;}
</style>
<path class="st0" d="M24.8,40.7h10.3"/>
<path class="st0" d="M44.7,40.7H52c4.3,0,7.8-3.1,7.8-7c0-3.4-2.9-6.3-6.6-6.9c0-6-5.3-11.7-11.3-11.7c-0.2,0,0.2,0,0,0
	c-3.2,0.2-6,1.7-7.7,4.1"/>
<path class="st0" d="M41.9,15.2C41.3,7.8,34.7,2,26.7,2c-8.5,0-15.4,6.5-15.4,14.5c0,0.7,0.1,1.6,0.2,2.3C6.2,19.5,2,24.1,2,29.7
	c0,6,4.8,11,10.7,11h1.7"/>
<path class="st0" d="M21.6,53.2l-0.9,2.2"/>
<path class="st0" d="M16.9,48.2l-2.1,5.1"/>
<path class="st0" d="M26.7,41l-2.4,6"/>
<path class="st0" d="M19.9,41l-0.9,2.3"/>
<path class="st0" d="M31.1,46.7L29,51.9"/>
<path class="st0" d="M35.9,51.7l-1.5,3.7"/>
<path class="st0" d="M40.2,41l-1.9,4.7"/>
</svg>
